<?xml version="1.0" encoding="UTF-8" standalone="no" ?>
<!DOCTYPE svg PUBLIC "-//W3C//DTD SVG 1.1//EN" "http://www.w3.org/Graphics/SVG/1.1/DTD/svg11.dtd">
<svg xmlns="http://www.w3.org/2000/svg" xmlns:xlink="http://www.w3.org/1999/xlink" version="1.1" width="1080" height="1080" viewBox="0 0 1080 1080" xml:space="preserve">
<desc>Created with Fabric.js 5.2.4</desc>
<defs>
</defs>
<g transform="matrix(1 0 0 1 540 540)" id="834934b7-8462-4e27-b74f-50c293b2e26f"  >
<rect style="stroke: none; stroke-width: 1; stroke-dasharray: none; stroke-linecap: butt; stroke-dashoffset: 0; stroke-linejoin: miter; stroke-miterlimit: 4; fill: rgb(255,255,255); fill-rule: nonzero; opacity: 1; visibility: hidden;" vector-effect="non-scaling-stroke"  x="-540" y="-540" rx="0" ry="0" width="1080" height="1080" />
</g>
<g transform="matrix(1 0 0 1 540 540)" id="8489aa64-408c-4cbd-ba02-d0b0f8b3347e"  >
</g>
<g transform="matrix(8.56 0 0 8.56 548.08 522.43)"  >
<path style="stroke: rgb(0,0,0); stroke-width: 0; stroke-dasharray: none; stroke-linecap: butt; stroke-dashoffset: 0; stroke-linejoin: miter; stroke-miterlimit: 4; fill: rgb(255,219,111); fill-rule: nonzero; opacity: 1;" vector-effect="non-scaling-stroke"  transform=" translate(-59.63, -61.45)" d="M 86.28 104.11 C 85.81 103.92 85.3 103.81 84.76 103.81 C 84.22 103.81 83.71000000000001 103.92 83.24000000000001 104.11 C 82.77000000000001 104.31 82.34 104.59 81.99000000000001 104.95 L 81.96000000000001 104.97 C 81.76 105.17 81.57000000000001 105.4 81.42 105.65 C 81.34 105.78 81.26 105.92 81.19 106.07000000000001 L 74.88 106.07000000000001 L 74.88 100.59 C 73.91 101.04 72.89999999999999 101.38000000000001 71.86999999999999 101.59 C 71.68999999999998 101.63000000000001 71.52 101.66 71.33999999999999 101.69 L 71.33999999999999 107.83 C 71.33999999999999 108.32 71.53999999999999 108.76 71.85999999999999 109.08 C 72.17999999999998 109.39999999999999 72.61999999999999 109.6 73.10999999999999 109.6 L 81.24999999999999 109.6 C 81.30999999999999 109.72 81.37999999999998 109.83999999999999 81.45999999999998 109.96 C 81.59999999999998 110.16999999999999 81.75999999999998 110.36999999999999 81.93999999999998 110.55 L 81.96999999999998 110.58 C 82.32999999999998 110.94 82.76999999999998 111.24 83.25999999999999 111.44 C 83.72999999999999 111.63 84.24 111.74 84.77999999999999 111.74 C 85.29999999999998 111.74 85.80999999999999 111.64 86.26999999999998 111.44999999999999 L 86.29999999999998 111.43999999999998 C 86.78999999999998 111.23999999999998 87.21999999999998 110.93999999999998 87.58999999999999 110.57999999999998 C 87.94999999999999 110.21999999999998 88.24999999999999 109.77999999999999 88.44999999999999 109.28999999999998 C 88.63999999999999 108.81999999999998 88.74999999999999 108.30999999999997 88.74999999999999 107.76999999999998 C 88.74999999999999 107.23999999999998 88.63999999999999 106.72999999999998 88.44999999999999 106.24999999999999 C 88.24999999999999 105.75999999999999 87.94999999999999 105.31999999999998 87.58999999999999 104.95999999999998 C 87.21 104.61 86.77 104.31 86.28 104.11 L 86.28 104.11 z M 57.43 66.61 L 50.03 66.61 L 48.97 70.09 L 42.31 70.09 L 50.260000000000005 48.97 L 57.400000000000006 48.97 L 65.32000000000001 70.09 L 58.49000000000001 70.09 L 57.43 66.61 L 57.43 66.61 z M 56.05 62.03 L 53.739999999999995 54.44 L 51.419999999999995 62.03 L 56.05 62.03 L 56.05 62.03 z M 67.16 48.96 L 73.71 48.96 L 73.71 70.08 L 67.16 70.08 L 67.16 48.96 L 67.16 48.96 z M 62.17 27.31 C 61.09 28.09 60.09 29.14 59.22 30.5 C 59.18 30.57 59.12 30.63 59.05 30.67 C 58.779999999999994 30.840000000000003 58.419999999999995 30.76 58.25 30.5 C 57.38 29.14 56.38 28.09 55.3 27.31 C 54.14 26.47 52.89 25.939999999999998 51.599999999999994 25.68 L 51.57999999999999 25.68 C 50.31999999999999 25.419999999999998 49.029999999999994 25.419999999999998 47.78999999999999 25.64 C 46.47999999999999 25.87 45.209999999999994 26.35 44.06999999999999 27.01 C 42.93999999999999 27.67 41.919999999999995 28.520000000000003 41.06999999999999 29.5 C 40.24999999999999 30.45 39.589999999999996 31.54 39.16 32.71 L 39.16 32.71 C 39.089999999999996 32.89 39.029999999999994 33.08 38.97 33.28 C 38.92 33.46 38.86 33.660000000000004 38.82 33.86 C 38.77 34.12 38.55 34.31 38.27 34.32 C 36.93 34.52 35.6 35.01 34.36 35.74 C 33.1 36.49 31.93 37.510000000000005 30.919999999999998 38.730000000000004 C 29.919999999999998 39.95 29.08 41.39 28.479999999999997 42.99 C 27.919999999999998 44.49 27.58 46.14 27.509999999999998 47.89 C 27.499999999999996 48.12 27.499999999999996 48.34 27.499999999999996 48.57 C 27.499999999999996 48.78 27.509999999999998 49 27.509999999999998 49.23 C 27.52 49.419999999999995 27.439999999999998 49.62 27.27 49.739999999999995 C 26.45 50.33 25.71 50.94 25.05 51.56999999999999 C 24.38 52.21999999999999 23.79 52.88999999999999 23.28 53.57999999999999 C 22.450000000000003 54.709999999999994 21.84 55.88999999999999 21.43 57.07999999999999 C 21 58.31999999999999 20.79 59.58999999999999 20.77 60.83999999999999 C 20.759999999999998 62.03999999999999 20.919999999999998 63.22999999999999 21.259999999999998 64.38 C 21.599999999999998 65.55 22.119999999999997 66.69 22.79 67.75 L 22.79 67.75 C 23.169999999999998 68.36 23.599999999999998 68.96 24.07 69.52 C 24.55 70.08999999999999 25.07 70.63 25.63 71.14 C 25.77 71.27 25.849999999999998 71.48 25.81 71.68 C 25.65 72.44000000000001 25.57 73.19000000000001 25.54 73.93 C 25.52 74.69000000000001 25.56 75.44000000000001 25.66 76.17 C 25.85 77.51 26.24 78.79 26.79 79.97 C 27.369999999999997 81.23 28.13 82.38 29.009999999999998 83.39 C 29.86 84.38 30.83 85.24 31.869999999999997 85.95 C 32.919999999999995 86.67 34.03 87.23 35.169999999999995 87.62 C 35.67999999999999 87.79 36.199999999999996 87.93 36.73 88.03 C 37.23 88.13 37.73 88.19 38.22 88.21000000000001 C 38.49 88.2 38.74 88.39000000000001 38.8 88.67 C 39.059999999999995 89.86 39.54 90.98 40.199999999999996 91.99 C 40.88999999999999 93.05 41.76 93.99 42.76 94.77 C 44.019999999999996 95.75 45.5 96.49 47.059999999999995 96.88 C 48.529999999999994 97.25 50.08 97.32 51.599999999999994 97 C 52.959999999999994 96.72 54.279999999999994 96.14 55.49999999999999 95.22 C 56.61999999999999 94.37 57.66 93.23 58.529999999999994 91.75 C 58.57999999999999 91.66 58.66 91.59 58.75999999999999 91.54 C 59.03999999999999 91.39 59.38999999999999 91.5 59.53999999999999 91.78 C 60.25999999999999 93.12 61.13999999999999 94.19 62.11999999999999 95 C 63.17999999999999 95.87 64.35 96.46 65.57999999999998 96.8 C 67.14999999999998 97.23 68.78999999999998 97.23 70.37999999999998 96.89999999999999 C 72.07999999999998 96.55 73.71999999999998 95.80999999999999 75.12999999999998 94.78999999999999 C 76.23999999999998 93.99999999999999 77.21999999999998 93.02999999999999 77.99999999999999 91.92999999999999 C 78.73999999999998 90.89999999999999 79.28999999999999 89.74999999999999 79.60999999999999 88.53999999999999 C 79.64999999999999 88.30999999999999 79.82999999999998 88.10999999999999 80.07999999999998 88.07 C 81.54999999999998 87.80999999999999 82.99999999999999 87.19999999999999 84.32999999999998 86.28999999999999 C 85.65999999999998 85.38 86.86999999999999 84.17999999999999 87.85999999999999 82.74999999999999 C 88.76999999999998 81.42999999999999 89.49999999999999 79.90999999999998 89.96999999999998 78.24999999999999 C 90.40999999999998 76.69999999999999 90.61999999999999 75.01999999999998 90.54999999999998 73.24999999999999 C 90.52999999999999 73.04999999999998 90.61999999999998 72.84999999999998 90.79999999999998 72.72999999999999 C 91.65999999999998 72.13999999999999 92.41999999999999 71.52 93.09999999999998 70.88999999999999 C 93.78999999999998 70.22999999999999 94.39999999999998 69.54999999999998 94.91999999999997 68.83999999999999 L 94.91999999999997 68.83999999999999 C 95.71999999999997 67.75999999999999 96.30999999999997 66.63999999999999 96.71999999999997 65.49 C 97.13999999999997 64.3 97.35999999999997 63.089999999999996 97.39999999999998 61.879999999999995 C 97.42999999999998 60.709999999999994 97.28999999999998 59.55 96.98999999999998 58.41 C 96.68999999999998 57.26 96.21999999999998 56.15 95.60999999999999 55.099999999999994 L 95.58999999999999 55.07999999999999 C 95.18999999999998 54.38999999999999 94.71999999999998 53.72999999999999 94.19999999999999 53.08999999999999 C 93.67999999999999 52.44999999999999 93.08999999999999 51.84999999999999 92.46 51.27999999999999 C 92.30999999999999 51.149999999999984 92.22999999999999 50.93999999999998 92.27 50.72999999999999 C 92.41 50.03999999999999 92.5 49.34999999999999 92.53 48.66999999999999 C 92.56 47.97999999999999 92.54 47.29999999999999 92.47 46.62999999999999 C 92.32 45.23999999999999 91.95 43.91999999999999 91.41 42.68999999999999 C 90.84 41.38999999999999 90.08 40.18999999999999 89.19 39.13999999999999 C 88.33 38.11999999999999 87.34 37.23 86.28 36.489999999999995 C 85.22 35.74999999999999 84.09 35.169999999999995 82.94 34.779999999999994 L 82.91 34.769999999999996 C 82.3 34.559999999999995 81.67999999999999 34.41 81.07 34.309999999999995 L 81.05 34.309999999999995 C 80.45 34.209999999999994 79.85 34.169999999999995 79.25999999999999 34.17999999999999 C 78.99 34.199999999999996 78.72999999999999 34.019999999999996 78.66 33.739999999999995 C 78.56 33.33 78.42999999999999 32.92999999999999 78.28 32.53999999999999 C 78.12 32.13999999999999 77.94 31.749999999999993 77.73 31.359999999999992 C 77.19 30.359999999999992 76.48 29.43999999999999 75.65 28.64999999999999 C 74.80000000000001 27.839999999999993 73.83000000000001 27.14999999999999 72.79 26.61999999999999 C 71.72000000000001 26.07999999999999 70.55000000000001 25.69999999999999 69.35000000000001 25.52999999999999 C 68.21000000000001 25.36999999999999 67.04 25.38999999999999 65.89000000000001 25.629999999999992 C 64.6 25.94 63.33 26.47 62.17 27.31 L 62.17 27.31 z M 78.52 38.57 C 78.58999999999999 38.35 78.78999999999999 38.18 79.03999999999999 38.160000000000004 C 79.46 38.13 79.88999999999999 38.150000000000006 80.32 38.220000000000006 C 80.75999999999999 38.290000000000006 81.19999999999999 38.400000000000006 81.63999999999999 38.550000000000004 C 82.46999999999998 38.830000000000005 83.29999999999998 39.260000000000005 84.07 39.800000000000004 C 84.83 40.330000000000005 85.55 40.980000000000004 86.16999999999999 41.720000000000006 L 86.17999999999999 41.74000000000001 C 86.83 42.51000000000001 87.38 43.37000000000001 87.78999999999999 44.31000000000001 C 88.17999999999999 45.19000000000001 88.44 46.13000000000001 88.55 47.12000000000001 C 88.61999999999999 47.78000000000001 88.61999999999999 48.47000000000001 88.53999999999999 49.17000000000001 C 88.47 49.82000000000001 88.32 50.49000000000001 88.08999999999999 51.16000000000001 L 88.07999999999998 51.20000000000001 C 87.93999999999998 51.62000000000001 87.94999999999999 52.06000000000001 88.07999999999998 52.45000000000001 C 88.21999999999998 52.85000000000001 88.47999999999999 53.21000000000001 88.84999999999998 53.45000000000001 L 88.87999999999998 53.47000000000001 C 89.57999999999998 53.990000000000016 90.19999999999997 54.56000000000002 90.73999999999998 55.16000000000001 C 91.29999999999998 55.77000000000001 91.77999999999999 56.430000000000014 92.17999999999998 57.110000000000014 C 92.61999999999998 57.860000000000014 92.95999999999998 58.640000000000015 93.16999999999997 59.44000000000001 C 93.38999999999997 60.23000000000001 93.48999999999997 61.030000000000015 93.45999999999998 61.820000000000014 C 93.43999999999998 62.640000000000015 93.27999999999997 63.460000000000015 92.98999999999998 64.27000000000001 C 92.70999999999998 65.04 92.29999999999998 65.80000000000001 91.75999999999998 66.54 L 91.74999999999997 66.55000000000001 C 91.25999999999998 67.22000000000001 90.63999999999997 67.88000000000001 89.90999999999997 68.51 C 89.20999999999997 69.11 88.39999999999996 69.68 87.46999999999997 70.23 L 87.43999999999997 70.25 C 87.06999999999996 70.46 86.79999999999997 70.78 86.63999999999997 71.15 C 86.47999999999998 71.52000000000001 86.42999999999998 71.93 86.50999999999998 72.33000000000001 L 86.51999999999998 72.41000000000001 C 86.70999999999998 73.94000000000001 86.61999999999998 75.4 86.30999999999999 76.73000000000002 C 85.96999999999998 78.18000000000002 85.37999999999998 79.48000000000002 84.60999999999999 80.59000000000002 C 84.01999999999998 81.44000000000001 83.33999999999999 82.17000000000002 82.60999999999999 82.75000000000001 C 81.85999999999999 83.35000000000001 81.04999999999998 83.79000000000002 80.21999999999998 84.06000000000002 L 80.20999999999998 84.06000000000002 C 79.90999999999998 84.15000000000002 79.57999999999998 83.98000000000002 79.48999999999998 83.68000000000002 C 78.35999999999999 79.99000000000002 76.40999999999998 78.80000000000003 73.10999999999999 77.10000000000002 L 73.03999999999999 77.06000000000002 C 72.58 76.84000000000002 72.08 76.82000000000002 71.63 76.96000000000002 C 71.17999999999999 77.10000000000002 70.78999999999999 77.41000000000003 70.56 77.86000000000003 L 70.53 77.92000000000003 C 70.31 78.38000000000002 70.29 78.88000000000002 70.43 79.33000000000003 C 70.58000000000001 79.78000000000003 70.9 80.18000000000002 71.36000000000001 80.42000000000003 C 74.12000000000002 81.83000000000003 76.16000000000001 82.90000000000003 76.13000000000001 86.36000000000003 C 76.12 87.39000000000003 75.80000000000001 88.39000000000003 75.26 89.29000000000003 C 74.69000000000001 90.24000000000004 73.87 91.09000000000003 72.92 91.78000000000003 C 71.95 92.48000000000003 70.86 92.99000000000002 69.74 93.24000000000002 C 68.67 93.49000000000002 67.57 93.50000000000003 66.53999999999999 93.22000000000003 C 64.8 92.74000000000002 63.669999999999995 91.58000000000003 62.90999999999999 90.17000000000003 C 62.18999999999999 88.83000000000003 61.78999999999999 87.27000000000002 61.49999999999999 85.85000000000002 C 61.47999999999999 85.80000000000003 61.47999999999999 85.74000000000002 61.47999999999999 85.69000000000003 C 61.47999999999999 84.97000000000003 60.91999999999999 84.50000000000003 60.18999999999999 84.29000000000002 C 59.86999999999999 84.19000000000003 59.51999999999999 84.15000000000002 59.17999999999999 84.15000000000002 C 58.82999999999999 84.15000000000002 58.489999999999995 84.20000000000002 58.169999999999995 84.29000000000002 C 57.449999999999996 84.51000000000002 56.88999999999999 84.98000000000002 56.88999999999999 85.69000000000003 C 56.88999999999999 85.74000000000002 56.879999999999995 85.78000000000003 56.86999999999999 85.83000000000003 C 56.30999999999999 88.05000000000003 55.49999999999999 89.72000000000003 54.54999999999999 90.92000000000003 C 53.43999999999999 92.33000000000003 52.139999999999986 93.10000000000004 50.79999999999999 93.38000000000002 C 49.81999999999999 93.58000000000003 48.80999999999999 93.53000000000003 47.84999999999999 93.28000000000003 C 46.83999999999999 93.01000000000003 45.87999999999999 92.52000000000002 45.039999999999985 91.88000000000002 C 44.20999999999999 91.23000000000002 43.51999999999998 90.44000000000003 43.039999999999985 89.55000000000003 C 42.579999999999984 88.70000000000003 42.30999999999999 87.76000000000002 42.30999999999999 86.80000000000003 C 42.30999999999999 83.16000000000003 44.50999999999999 81.94000000000003 47.41999999999999 80.45000000000003 C 47.87999999999999 80.21000000000004 48.19999999999999 79.81000000000003 48.34999999999999 79.36000000000003 C 48.499999999999986 78.90000000000003 48.469999999999985 78.39000000000003 48.23999999999999 77.92000000000003 C 47.999999999999986 77.46000000000004 47.59999999999999 77.14000000000003 47.149999999999984 76.99000000000002 C 46.69999999999998 76.85000000000002 46.19999999999998 76.87000000000002 45.73999999999999 77.09000000000002 L 45.70999999999999 77.10000000000002 C 42.27999999999999 78.85000000000002 40.22999999999999 80.13000000000002 38.999999999999986 83.94000000000003 C 38.929999999999986 84.19000000000003 38.68999999999998 84.38000000000002 38.41999999999999 84.37000000000003 C 38.079999999999984 84.36000000000003 37.73999999999999 84.32000000000004 37.389999999999986 84.25000000000003 C 37.04999999999998 84.18000000000004 36.70999999999999 84.09000000000003 36.389999999999986 83.97000000000003 C 35.579999999999984 83.69000000000003 34.76999999999999 83.28000000000003 34.009999999999984 82.76000000000003 C 33.259999999999984 82.24000000000004 32.55999999999998 81.62000000000003 31.939999999999984 80.90000000000003 C 31.299999999999983 80.16000000000004 30.749999999999982 79.33000000000004 30.329999999999984 78.42000000000003 C 29.929999999999986 77.57000000000004 29.649999999999984 76.66000000000003 29.509999999999984 75.71000000000004 L 29.509999999999984 75.69000000000004 C 29.409999999999982 74.99000000000004 29.389999999999983 74.26000000000003 29.469999999999985 73.51000000000003 C 29.539999999999985 72.81000000000003 29.689999999999984 72.08000000000003 29.939999999999984 71.36000000000003 L 29.949999999999985 71.33000000000003 C 30.089999999999986 70.92000000000003 30.079999999999984 70.49000000000002 29.959999999999987 70.11000000000003 L 29.949999999999985 70.09000000000003 C 29.819999999999986 69.69000000000003 29.559999999999985 69.34000000000003 29.199999999999985 69.09000000000003 L 29.179999999999986 69.07000000000004 C 28.539999999999985 68.59000000000003 27.959999999999987 68.08000000000004 27.449999999999985 67.52000000000004 C 26.929999999999986 66.96000000000004 26.469999999999985 66.36000000000004 26.089999999999986 65.74000000000004 C 25.629999999999985 64.99000000000004 25.269999999999985 64.19000000000004 25.029999999999987 63.37000000000004 C 24.799999999999986 62.57000000000004 24.679999999999986 61.75000000000004 24.689999999999987 60.91000000000004 C 24.69999999999999 60.06000000000004 24.849999999999987 59.19000000000004 25.149999999999988 58.34000000000004 C 25.439999999999987 57.53000000000004 25.85999999999999 56.72000000000004 26.439999999999987 55.930000000000035 C 26.929999999999986 55.26000000000003 27.529999999999987 54.60000000000004 28.249999999999986 53.970000000000034 C 28.939999999999987 53.360000000000035 29.719999999999985 52.78000000000004 30.619999999999987 52.23000000000003 C 30.949999999999985 52.03000000000003 31.189999999999987 51.750000000000036 31.349999999999987 51.430000000000035 L 31.35999999999999 51.400000000000034 C 31.51999999999999 51.070000000000036 31.579999999999988 50.70000000000003 31.52999999999999 50.330000000000034 C 31.51999999999999 50.290000000000035 31.51999999999999 50.250000000000036 31.51999999999999 50.210000000000036 L 31.51999999999999 50.19000000000003 C 31.469999999999988 49.84000000000003 31.43999999999999 49.49000000000003 31.419999999999987 49.150000000000034 C 31.399999999999988 48.78000000000004 31.399999999999988 48.41000000000003 31.409999999999986 48.05000000000003 C 31.459999999999987 46.74000000000003 31.709999999999987 45.51000000000003 32.11999999999998 44.400000000000034 C 32.55999999999998 43.210000000000036 33.179999999999986 42.140000000000036 33.91999999999998 41.23000000000003 C 34.52999999999998 40.48000000000003 35.22999999999998 39.85000000000003 35.95999999999998 39.360000000000035 C 36.689999999999976 38.87000000000003 37.45999999999998 38.52000000000003 38.24999999999998 38.320000000000036 L 38.24999999999998 38.320000000000036 C 38.549999999999976 38.23000000000003 38.87999999999998 38.400000000000034 38.96999999999998 38.70000000000004 C 39.589999999999975 40.66000000000004 40.369999999999976 41.890000000000036 41.85999999999998 43.28000000000004 L 41.91999999999998 43.330000000000034 C 42.28999999999998 43.67000000000004 42.76999999999998 43.830000000000034 43.23999999999998 43.81000000000003 C 43.70999999999998 43.79000000000003 44.16999999999998 43.60000000000003 44.509999999999984 43.23000000000003 L 44.539999999999985 43.19000000000003 C 44.87999999999999 42.820000000000036 45.039999999999985 42.34000000000003 45.01999999999998 41.87000000000003 C 44.99999999999998 41.400000000000034 44.79999999999998 40.930000000000035 44.41999999999998 40.570000000000036 C 43.21999999999998 39.460000000000036 42.94999999999998 38.77000000000004 42.58999999999998 37.650000000000034 C 42.16999999999998 36.360000000000035 42.23999999999998 35.10000000000004 42.649999999999984 33.98000000000003 C 42.929999999999986 33.21000000000003 43.36999999999998 32.49000000000003 43.929999999999986 31.86000000000003 C 44.47999999999998 31.230000000000032 45.149999999999984 30.67000000000003 45.889999999999986 30.24000000000003 L 45.91999999999999 30.22000000000003 C 46.679999999999986 29.78000000000003 47.499999999999986 29.46000000000003 48.34999999999999 29.30000000000003 C 49.15999999999999 29.15000000000003 49.98999999999999 29.14000000000003 50.79999999999999 29.31000000000003 C 51.93999999999999 29.55000000000003 53.05999999999999 30.15000000000003 54.04999999999999 31.19000000000003 C 54.91999999999999 32.10000000000003 55.68999999999999 33.36000000000003 56.29999999999999 35.02000000000003 L 56.30999999999999 35.040000000000035 C 56.51999999999999 35.69000000000003 57.19999999999999 36.070000000000036 57.999999999999986 36.220000000000034 C 58.359999999999985 36.290000000000035 58.73999999999999 36.31000000000004 59.109999999999985 36.290000000000035 L 59.11999999999998 36.290000000000035 C 59.499999999999986 36.27000000000003 59.859999999999985 36.20000000000003 60.19999999999998 36.09000000000003 C 60.79999999999998 35.89000000000003 61.26999999999998 35.57000000000003 61.37999999999998 35.16000000000003 L 61.37999999999998 34.930000000000035 C 61.37999999999998 33.77000000000004 62.06999999999998 32.540000000000035 63.01999999999998 31.530000000000037 C 64.05999999999999 30.430000000000035 65.44999999999999 29.560000000000038 66.61999999999998 29.320000000000036 C 67.35999999999997 29.170000000000037 68.10999999999997 29.160000000000036 68.83999999999997 29.270000000000035 C 69.59999999999998 29.390000000000036 70.33999999999997 29.630000000000035 71.03999999999998 29.980000000000036 L 71.1 30 C 71.80999999999999 30.36 72.46 30.82 73.03 31.36 C 73.59 31.9 74.07000000000001 32.51 74.43 33.18 C 75 34.23 75.26 35.43 75.08000000000001 36.7 C 74.92000000000002 37.81 74.88000000000001 38.510000000000005 73.95000000000002 39.620000000000005 L 73.94000000000001 39.63 C 73.61000000000001 40.02 73.47000000000001 40.510000000000005 73.51 40.99 C 73.55000000000001 41.45 73.76 41.9 74.13000000000001 42.22 L 74.19000000000001 42.269999999999996 C 74.58000000000001 42.589999999999996 75.06000000000002 42.72 75.53000000000002 42.67999999999999 C 75.99000000000001 42.63999999999999 76.44000000000001 42.42999999999999 76.76000000000002 42.059999999999995 L 76.81000000000002 41.989999999999995 C 77.77 40.85 78.08 40.01 78.52 38.57 L 78.52 38.57 z M 100.48 87.51 C 100.29 87.04 100.18 86.53 100.18 85.99000000000001 C 100.18 85.45 100.29 84.94000000000001 100.48 84.47000000000001 C 100.68 84.00000000000001 100.96000000000001 83.57000000000001 101.32000000000001 83.22000000000001 L 101.34 83.19000000000001 C 101.54 82.99000000000001 101.77000000000001 82.80000000000001 102.02000000000001 82.65 C 102.15 82.57000000000001 102.29 82.49000000000001 102.44000000000001 82.42 L 102.44000000000001 76.11 L 94.68 76.11 C 94.69000000000001 75.7 94.69000000000001 75.29 94.67 74.87 C 94.65 74.64 94.75 74.41000000000001 94.95 74.28 C 95.75 73.73 96.48 73.16 97.14 72.57000000000001 L 104.2 72.57000000000001 C 104.69 72.57000000000001 105.13000000000001 72.77000000000001 105.45 73.09 C 105.77 73.41 105.97 73.85000000000001 105.97 74.34 L 105.97 82.48 C 106.09 82.54 106.21 82.61 106.33 82.69 C 106.53999999999999 82.83 106.74 82.99 106.92 83.17 L 106.95 83.2 C 107.31 83.56 107.61 84 107.81 84.49000000000001 C 108 84.96000000000001 108.11 85.47000000000001 108.11 86.01 C 108.11 86.53 108.01 87.03 107.82 87.5 L 107.80999999999999 87.53 C 107.60999999999999 88.02 107.30999999999999 88.45 106.94999999999999 88.82000000000001 C 106.58999999999999 89.18 106.14999999999999 89.48 105.65999999999998 89.68 C 105.18999999999998 89.87 104.67999999999998 89.98 104.13999999999999 89.98 C 103.60999999999999 89.98 103.09999999999998 89.87 102.61999999999999 89.68 C 102.13 89.48 101.68999999999998 89.18 101.32999999999998 88.82000000000001 C 100.98 88.44 100.68 88 100.48 87.51 L 100.48 87.51 z M 111.72 67.26 L 101.17 67.26 C 101.35000000000001 66.87 101.51 66.48 101.65 66.08 C 101.93 65.3 102.13000000000001 64.51 102.25 63.72 L 111.72 63.72 C 111.78999999999999 63.589999999999996 111.86 63.46 111.94 63.33 C 112.09 63.089999999999996 112.27 62.87 112.46 62.68 C 112.83 62.31 113.25999999999999 62.02 113.75 61.82 C 114.22 61.63 114.73 61.52 115.27 61.52 C 115.78999999999999 61.52 116.28999999999999 61.620000000000005 116.75999999999999 61.81 L 116.78999999999999 61.82 C 117.27999999999999 62.02 117.71 62.32 118.08 62.68 C 118.44 63.04 118.74 63.48 118.94 63.97 C 119.13 64.44 119.24 64.95 119.24 65.49 C 119.24 66.02 119.13 66.53 118.94 67.00999999999999 C 118.74 67.49999999999999 118.44 67.94 118.08 68.3 C 117.72 68.66 117.28 68.96 116.78999999999999 69.16 C 116.32 69.35 115.80999999999999 69.46 115.27 69.46 C 114.75 69.46 114.25 69.36 113.78 69.16999999999999 L 113.75 69.15999999999998 C 113.26 68.95999999999998 112.83 68.65999999999998 112.46 68.29999999999998 C 112.27 68.10999999999999 112.1 67.89999999999998 111.94999999999999 67.66999999999999 L 111.92999999999999 67.63999999999999 C 111.86 67.52 111.79 67.39 111.72 67.26 L 111.72 67.26 z M 115.08 57.58 L 101.81 57.58 C 101.47 56.46 100.99000000000001 55.37 100.39 54.33 L 100.37 54.3 C 100.32000000000001 54.209999999999994 100.27000000000001 54.129999999999995 100.22 54.04 L 113.32 54.04 L 113.32 42.49 C 113.22 42.43 113.11999999999999 42.370000000000005 113.02 42.300000000000004 C 112.82 42.160000000000004 112.64 42.010000000000005 112.47 41.84 C 112.11 41.480000000000004 111.81 41.040000000000006 111.61 40.550000000000004 C 111.42 40.080000000000005 111.31 39.57000000000001 111.31 39.03 C 111.31 38.5 111.42 37.980000000000004 111.61 37.51 C 111.81 37.019999999999996 112.11 36.589999999999996 112.47 36.22 C 112.83 35.86 113.27 35.56 113.76 35.36 C 114.23 35.17 114.74000000000001 35.06 115.28 35.06 C 115.81 35.06 116.32000000000001 35.17 116.8 35.36 C 117.28999999999999 35.56 117.73 35.86 118.09 36.22 C 118.45 36.58 118.75 37.019999999999996 118.95 37.51 C 119.14 37.98 119.25 38.489999999999995 119.25 39.03 C 119.25 39.550000000000004 119.15 40.050000000000004 118.96 40.52 L 118.94999999999999 40.550000000000004 C 118.74999999999999 41.040000000000006 118.44999999999999 41.470000000000006 118.08999999999999 41.84 C 117.86999999999999 42.06 117.60999999999999 42.260000000000005 117.33999999999999 42.43000000000001 C 117.18999999999998 42.52000000000001 117.02 42.61000000000001 116.85999999999999 42.68000000000001 L 116.85999999999999 55.800000000000004 C 116.85999999999999 56.290000000000006 116.65999999999998 56.730000000000004 116.33999999999999 57.050000000000004 C 116.01 57.38 115.57 57.58 115.08 57.58 L 115.08 57.58 z M 101.21 49.04 L 96.69 49.04 C 96.81 48.38 96.88 47.72 96.91 47.06 C 96.92999999999999 46.53 96.92999999999999 46.010000000000005 96.89999999999999 45.5 L 99.44 45.5 L 99.44 40.28 C 99.3 40.21 99.17 40.14 99.03999999999999 40.050000000000004 C 98.8 39.900000000000006 98.58 39.720000000000006 98.36999999999999 39.510000000000005 L 98.36999999999999 39.510000000000005 C 98.00999999999999 39.150000000000006 97.71 38.71000000000001 97.50999999999999 38.220000000000006 C 97.32 37.75000000000001 97.21 37.24000000000001 97.21 36.71000000000001 C 97.21 36.18000000000001 97.32 35.67000000000001 97.50999999999999 35.190000000000005 C 97.71 34.720000000000006 97.99 34.290000000000006 98.33999999999999 33.93000000000001 L 98.36999999999999 33.900000000000006 C 98.72999999999999 33.540000000000006 99.16999999999999 33.24000000000001 99.66 33.040000000000006 C 100.13 32.85000000000001 100.64 32.74000000000001 101.17999999999999 32.74000000000001 C 101.72 32.74000000000001 102.22999999999999 32.85000000000001 102.69999999999999 33.040000000000006 C 103.16999999999999 33.24000000000001 103.6 33.52 103.96 33.88000000000001 L 103.99 33.90000000000001 C 104.35 34.26000000000001 104.64 34.680000000000014 104.83999999999999 35.16000000000001 L 104.85 35.19000000000001 C 105.03999999999999 35.66000000000001 105.14999999999999 36.17000000000001 105.14999999999999 36.710000000000015 C 105.14999999999999 37.240000000000016 105.03999999999999 37.76000000000001 104.85 38.23000000000002 C 104.64999999999999 38.70000000000002 104.36999999999999 39.13000000000002 104.02 39.490000000000016 L 103.99 39.52000000000002 C 103.8 39.710000000000015 103.58999999999999 39.88000000000002 103.35 40.04000000000002 C 103.22999999999999 40.12000000000002 103.11 40.19000000000002 102.97999999999999 40.25000000000002 L 102.97999999999999 47.270000000000024 C 102.97999999999999 47.760000000000026 102.77999999999999 48.200000000000024 102.46 48.520000000000024 C 102.14 48.84 101.69 49.04 101.21 49.04 L 101.21 49.04 z M 31.13 18.77 C 31.599999999999998 18.96 32.11 19.07 32.65 19.07 C 33.19 19.07 33.699999999999996 18.96 34.17 18.77 C 34.64 18.57 35.07 18.29 35.42 17.93 L 35.45 17.91 C 35.650000000000006 17.71 35.84 17.48 35.99 17.23 C 36.07 17.1 36.15 16.96 36.22 16.81 L 42.53 16.81 L 42.53 22.259999999999998 C 43.64 21.669999999999998 44.84 21.24 46.07 20.99 L 46.07 15.04 C 46.07 14.549999999999999 45.87 14.11 45.55 13.79 C 45.23 13.469999999999999 44.79 13.27 44.3 13.27 L 36.16 13.27 C 36.099999999999994 13.15 36.029999999999994 13.03 35.949999999999996 12.91 C 35.809999999999995 12.7 35.65 12.5 35.47 12.32 L 35.44 12.290000000000001 C 35.08 11.930000000000001 34.64 11.63 34.15 11.430000000000001 C 33.68 11.240000000000002 33.17 11.13 32.629999999999995 11.13 C 32.10999999999999 11.13 31.599999999999994 11.23 31.139999999999997 11.42 L 31.109999999999996 11.43 C 30.619999999999997 11.629999999999999 30.189999999999994 11.93 29.819999999999997 12.29 C 29.459999999999997 12.649999999999999 29.159999999999997 13.09 28.959999999999997 13.579999999999998 C 28.769999999999996 14.049999999999999 28.659999999999997 14.559999999999999 28.659999999999997 15.099999999999998 C 28.659999999999997 15.629999999999997 28.769999999999996 16.139999999999997 28.959999999999997 16.619999999999997 C 29.159999999999997 17.109999999999996 29.459999999999997 17.549999999999997 29.819999999999997 17.909999999999997 C 30.21 18.27 30.64 18.57 31.13 18.77 L 31.13 18.77 z M 51.39 7.53 L 51.39 21.19 C 52.57 21.53 53.72 22.07 54.8 22.85 L 54.919999999999995 22.94 C 54.919999999999995 22.91 54.92999999999999 22.880000000000003 54.92999999999999 22.85 L 54.92999999999999 7.53 C 55.059999999999995 7.46 55.18999999999999 7.390000000000001 55.31999999999999 7.3100000000000005 C 55.559999999999995 7.16 55.779999999999994 6.98 55.96999999999999 6.790000000000001 C 56.32999999999999 6.420000000000001 56.62999999999999 5.990000000000001 56.82999999999999 5.500000000000001 C 57.01999999999999 5.030000000000001 57.12999999999999 4.520000000000001 57.12999999999999 3.980000000000001 C 57.12999999999999 3.460000000000001 57.02999999999999 2.960000000000001 56.83999999999999 2.490000000000001 L 56.82999999999999 2.4600000000000013 C 56.62999999999999 1.9700000000000013 56.32999999999999 1.5400000000000014 55.96999999999999 1.1700000000000013 C 55.60999999999999 0.8100000000000013 55.169999999999995 0.5100000000000012 54.67999999999999 0.3100000000000013 C 54.209999999999994 0.12000000000000127 53.699999999999996 0.010000000000001286 53.15999999999999 0.010000000000001286 C 52.62999999999999 0.010000000000001286 52.11999999999999 0.12000000000000129 51.639999999999986 0.3100000000000013 C 51.149999999999984 0.5100000000000013 50.70999999999999 0.8100000000000013 50.34999999999999 1.1700000000000013 C 49.98999999999999 1.5300000000000011 49.68999999999999 1.9700000000000013 49.48999999999999 2.4600000000000013 C 49.29999999999999 2.9300000000000015 49.18999999999999 3.4400000000000013 49.18999999999999 3.9800000000000013 C 49.18999999999999 4.500000000000002 49.28999999999999 5.000000000000002 49.47999999999999 5.4700000000000015 L 49.48999999999999 5.500000000000002 C 49.68999999999999 5.990000000000002 49.98999999999999 6.420000000000002 50.34999999999999 6.790000000000002 C 50.539999999999985 6.980000000000002 50.749999999999986 7.150000000000002 50.97999999999999 7.300000000000002 L 51 7.31 C 51.13 7.39 51.25 7.46 51.39 7.53 L 51.39 7.53 z M 61.06 4.17 L 61.06 24.15 C 61.54 23.66 62.050000000000004 23.229999999999997 62.57 22.849999999999998 C 63.22 22.38 63.9 21.99 64.6 21.689999999999998 L 64.6 5.93 L 76.14999999999999 5.93 C 76.21 6.029999999999999 76.27 6.13 76.33999999999999 6.2299999999999995 C 76.47999999999999 6.43 76.63 6.609999999999999 76.79999999999998 6.779999999999999 C 77.15999999999998 7.14 77.59999999999998 7.4399999999999995 78.08999999999999 7.64 C 78.55999999999999 7.83 79.07 7.9399999999999995 79.60999999999999 7.9399999999999995 C 80.13999999999999 7.9399999999999995 80.65999999999998 7.829999999999999 81.12999999999998 7.64 C 81.61999999999998 7.4399999999999995 82.05999999999999 7.14 82.41999999999999 6.779999999999999 C 82.77999999999999 6.419999999999999 83.07999999999998 5.9799999999999995 83.27999999999999 5.489999999999999 C 83.46999999999998 5.02 83.57999999999998 4.51 83.57999999999998 3.9699999999999993 C 83.57999999999998 3.4399999999999995 83.46999999999998 2.9299999999999993 83.27999999999999 2.4499999999999993 C 83.07999999999998 1.9599999999999993 82.77999999999999 1.5199999999999991 82.41999999999999 1.1599999999999993 C 82.04 0.8 81.6 0.5 81.11 0.3 C 80.64 0.11 80.13 0 79.6 0 C 79.08 0 78.58 0.1 78.11 0.29 L 78.08 0.3 C 77.59 0.5 77.16 0.8 76.78999999999999 1.16 C 76.57 1.38 76.36999999999999 1.64 76.19999999999999 1.91 C 76.10999999999999 2.06 76.01999999999998 2.23 75.94999999999999 2.3899999999999997 L 62.83 2.3899999999999997 C 62.339999999999996 2.3899999999999997 61.9 2.59 61.58 2.9099999999999997 C 61.26 3.24 61.06 3.68 61.06 4.17 L 61.06 4.17 z M 69.6 18.04 L 69.6 20.78 C 69.96 20.8 70.33 20.830000000000002 70.69 20.89 C 71.53 21.01 72.35 21.22 73.14 21.51 L 73.14 19.82 L 78.36 19.82 C 78.42999999999999 19.96 78.5 20.09 78.59 20.22 C 78.74000000000001 20.459999999999997 78.92 20.68 79.13000000000001 20.89 L 79.13000000000001 20.89 C 79.49000000000001 21.25 79.93 21.55 80.42000000000002 21.75 C 80.89000000000001 21.94 81.40000000000002 22.05 81.93000000000002 22.05 C 82.46000000000002 22.05 82.97000000000003 21.94 83.45000000000002 21.75 C 83.92000000000002 21.55 84.35000000000002 21.27 84.71000000000002 20.92 L 84.74000000000002 20.89 C 85.10000000000002 20.53 85.40000000000002 20.09 85.60000000000002 19.6 C 85.79000000000002 19.130000000000003 85.90000000000002 18.62 85.90000000000002 18.080000000000002 C 85.90000000000002 17.540000000000003 85.79000000000002 17.03 85.60000000000002 16.560000000000002 C 85.40000000000002 16.090000000000003 85.12000000000002 15.660000000000002 84.76000000000002 15.300000000000002 L 84.74000000000002 15.270000000000003 C 84.38000000000002 14.910000000000004 83.96000000000002 14.620000000000003 83.48000000000002 14.420000000000003 L 83.45000000000002 14.410000000000004 C 82.98000000000002 14.220000000000004 82.47000000000001 14.110000000000003 81.93000000000002 14.110000000000003 C 81.40000000000002 14.110000000000003 80.88000000000002 14.220000000000002 80.41000000000003 14.410000000000004 C 79.94000000000003 14.610000000000003 79.51000000000002 14.890000000000004 79.15000000000002 15.240000000000004 L 79.12000000000002 15.270000000000003 C 78.93000000000002 15.460000000000003 78.76000000000002 15.670000000000003 78.60000000000002 15.910000000000004 C 78.52000000000002 16.030000000000005 78.45000000000002 16.150000000000002 78.39000000000003 16.280000000000005 L 71.37000000000003 16.280000000000005 C 70.88000000000004 16.280000000000005 70.44000000000003 16.480000000000004 70.12000000000003 16.800000000000004 C 69.8 17.11 69.6 17.55 69.6 18.04 L 69.6 18.04 z M 18.77 35.2 C 18.96 35.67 19.07 36.18 19.07 36.720000000000006 C 19.07 37.260000000000005 18.96 37.77 18.77 38.24000000000001 C 18.57 38.71000000000001 18.29 39.14000000000001 17.93 39.49000000000001 L 17.91 39.52000000000001 C 17.71 39.72000000000001 17.48 39.91000000000001 17.23 40.06000000000001 C 17.1 40.14000000000001 16.96 40.220000000000006 16.81 40.290000000000006 L 16.81 46.60000000000001 L 23.36 46.60000000000001 L 23.36 46.91000000000001 C 23.36 47.15000000000001 23.37 47.40000000000001 23.38 47.66000000000001 C 23.4 47.88000000000001 23.3 48.10000000000001 23.11 48.24000000000001 C 22.25 48.85000000000001 21.48 49.49000000000001 20.78 50.14000000000001 L 15.060000000000002 50.14000000000001 C 14.570000000000002 50.14000000000001 14.130000000000003 49.940000000000005 13.810000000000002 49.620000000000005 C 13.490000000000002 49.300000000000004 13.290000000000003 48.86000000000001 13.290000000000003 48.370000000000005 L 13.290000000000003 40.230000000000004 C 13.170000000000003 40.17 13.050000000000002 40.1 12.930000000000003 40.02 C 12.720000000000002 39.88 12.520000000000003 39.720000000000006 12.340000000000003 39.540000000000006 L 12.310000000000004 39.510000000000005 C 11.950000000000005 39.150000000000006 11.650000000000004 38.71000000000001 11.450000000000005 38.220000000000006 C 11.260000000000005 37.75000000000001 11.150000000000004 37.24000000000001 11.150000000000004 36.7 C 11.150000000000004 36.18 11.250000000000004 35.68 11.440000000000003 35.21 L 11.450000000000003 35.18 C 11.650000000000002 34.69 11.950000000000003 34.26 12.310000000000002 33.89 C 12.670000000000002 33.53 13.110000000000003 33.230000000000004 13.600000000000001 33.03 C 14.070000000000002 32.84 14.580000000000002 32.730000000000004 15.120000000000001 32.730000000000004 C 15.65 32.730000000000004 16.16 32.84 16.64 33.03 C 17.13 33.230000000000004 17.57 33.53 17.93 33.89 C 18.27 34.27 18.57 34.71 18.77 35.2 L 18.77 35.2 z M 7.53 55.45 L 16.93 55.45 C 16.77 55.81 16.63 56.18 16.5 56.540000000000006 C 16.22 57.35000000000001 16.02 58.160000000000004 15.9 58.980000000000004 L 7.53 58.980000000000004 C 7.46 59.11000000000001 7.390000000000001 59.24 7.3100000000000005 59.370000000000005 C 7.16 59.61000000000001 6.98 59.830000000000005 6.790000000000001 60.02 C 6.420000000000001 60.39 5.990000000000001 60.68 5.500000000000001 60.88 C 5.030000000000001 61.07 4.520000000000001 61.18 3.980000000000001 61.18 C 3.460000000000001 61.18 2.960000000000001 61.08 2.490000000000001 60.89 L 2.4600000000000013 60.88 C 1.9700000000000013 60.68 1.5400000000000014 60.38 1.1700000000000013 60.02 C 0.8100000000000013 59.660000000000004 0.5100000000000012 59.220000000000006 0.3100000000000013 58.730000000000004 C 0.12000000000000127 58.260000000000005 0.010000000000001286 57.75000000000001 0.010000000000001286 57.21 C 0.010000000000001286 56.68 0.12000000000000129 56.17 0.3100000000000013 55.69 C 0.5100000000000013 55.199999999999996 0.8100000000000013 54.76 1.1700000000000013 54.4 C 1.5300000000000011 54.04 1.9700000000000013 53.74 2.4600000000000013 53.54 C 2.9300000000000015 53.35 3.4400000000000013 53.24 3.9800000000000013 53.24 C 4.500000000000002 53.24 5.000000000000002 53.34 5.4700000000000015 53.53 L 5.500000000000002 53.54 C 5.990000000000002 53.74 6.420000000000002 54.04 6.790000000000002 54.4 C 6.980000000000002 54.589999999999996 7.150000000000002 54.8 7.300000000000002 55.03 L 7.320000000000001 55.06 C 7.39 55.19 7.46 55.32 7.53 55.45 L 7.53 55.45 z M 4.17 65.13 L 16.4 65.13 C 16.779999999999998 66.33999999999999 17.33 67.50999999999999 18.029999999999998 68.61999999999999 L 18.029999999999998 68.63 L 18.049999999999997 68.67 L 5.93 68.67 L 5.93 80.22 C 6.029999999999999 80.28 6.13 80.34 6.2299999999999995 80.41 C 6.43 80.55 6.609999999999999 80.7 6.779999999999999 80.86999999999999 C 7.14 81.22999999999999 7.4399999999999995 81.66999999999999 7.64 82.16 C 7.83 82.63 7.9399999999999995 83.14 7.9399999999999995 83.67999999999999 C 7.9399999999999995 84.21 7.829999999999999 84.72999999999999 7.64 85.19999999999999 C 7.4399999999999995 85.68999999999998 7.14 86.11999999999999 6.779999999999999 86.49 C 6.419999999999999 86.85 5.9799999999999995 87.14999999999999 5.489999999999999 87.35 C 5.02 87.53999999999999 4.51 87.64999999999999 3.9699999999999993 87.64999999999999 C 3.4399999999999995 87.64999999999999 2.9299999999999993 87.53999999999999 2.4499999999999993 87.35 C 1.9599999999999993 87.14999999999999 1.5199999999999991 86.85 1.1599999999999993 86.49 C 0.8 86.1 0.5 85.66 0.3 85.18 C 0.11 84.71 0 84.2 0 83.66 C 0 83.14 0.1 82.64 0.29 82.17 L 0.3 82.14 C 0.5 81.65 0.8 81.22 1.16 80.85 C 1.38 80.63 1.64 80.42999999999999 1.91 80.25999999999999 C 2.06 80.16999999999999 2.23 80.07999999999998 2.3899999999999997 80.00999999999999 L 2.3899999999999997 66.89 C 2.3899999999999997 66.4 2.59 65.96 2.9099999999999997 65.64 C 3.24 65.33 3.68 65.13 4.17 65.13 L 4.17 65.13 z M 18.04 73.67 L 21.34 73.67 C 21.23 74.33 21.169999999999998 74.98 21.15 75.62 C 21.13 76.16000000000001 21.139999999999997 76.69 21.18 77.21000000000001 L 19.81 77.21000000000001 L 19.81 82.43 C 19.95 82.5 20.08 82.57000000000001 20.209999999999997 82.66000000000001 C 20.449999999999996 82.81000000000002 20.669999999999998 82.99000000000001 20.88 83.20000000000002 L 20.88 83.20000000000002 C 21.24 83.56000000000002 21.54 84.00000000000001 21.74 84.49000000000002 C 21.93 84.96000000000002 22.04 85.47000000000003 22.04 86.01000000000002 C 22.04 86.55000000000001 21.93 87.05000000000003 21.74 87.53000000000002 C 21.54 88.00000000000001 21.259999999999998 88.43000000000002 20.91 88.79000000000002 L 20.88 88.82000000000002 C 20.52 89.18000000000002 20.08 89.48000000000002 19.59 89.68000000000002 C 19.12 89.87000000000002 18.61 89.98000000000002 18.07 89.98000000000002 C 17.53 89.98000000000002 17.02 89.87000000000002 16.55 89.68000000000002 C 16.080000000000002 89.48000000000002 15.65 89.20000000000002 15.290000000000001 88.84000000000002 L 15.260000000000002 88.82000000000002 C 14.900000000000002 88.46000000000002 14.610000000000001 88.04000000000002 14.410000000000002 87.56000000000002 L 14.400000000000002 87.53000000000002 C 14.210000000000003 87.06000000000002 14.100000000000001 86.55000000000001 14.100000000000001 86.01000000000002 C 14.100000000000001 85.48000000000002 14.21 84.96000000000002 14.400000000000002 84.49000000000002 C 14.600000000000001 84.02000000000002 14.880000000000003 83.59000000000002 15.230000000000002 83.23000000000002 L 15.260000000000002 83.20000000000002 C 15.450000000000001 83.01000000000002 15.660000000000002 82.84000000000002 15.900000000000002 82.68000000000002 C 16.020000000000003 82.60000000000002 16.14 82.53000000000002 16.270000000000003 82.47000000000003 L 16.270000000000003 75.45000000000003 C 16.270000000000003 74.96000000000004 16.470000000000002 74.52000000000002 16.790000000000003 74.20000000000003 C 17.11 73.86 17.55 73.67 18.04 73.67 L 18.04 73.67 z M 66.03 115.35 L 66.03 101.36 C 64.78 100.97 63.6 100.34 62.52 99.45 L 62.5 99.43 L 62.5 115.36000000000001 C 62.37 115.43 62.24 115.50000000000001 62.11 115.58000000000001 C 61.87 115.73000000000002 61.65 115.91000000000001 61.46 116.10000000000001 C 61.1 116.47000000000001 60.800000000000004 116.9 60.6 117.39000000000001 C 60.410000000000004 117.86000000000001 60.300000000000004 118.37000000000002 60.300000000000004 118.91000000000001 C 60.300000000000004 119.43 60.400000000000006 119.93 60.59 120.4 L 60.6 120.43 C 60.800000000000004 120.92 61.1 121.35000000000001 61.46 121.72000000000001 C 61.82 122.08000000000001 62.26 122.38000000000001 62.75 122.58000000000001 C 63.22 122.77000000000001 63.73 122.88000000000001 64.27 122.88000000000001 C 64.8 122.88000000000001 65.31 122.77000000000001 65.78999999999999 122.58000000000001 C 66.27999999999999 122.38000000000001 66.72 122.08000000000001 67.08 121.72000000000001 C 67.44 121.36000000000001 67.74 120.92000000000002 67.94 120.43 C 68.13 119.96000000000001 68.24 119.45 68.24 118.91000000000001 C 68.24 118.39000000000001 68.14 117.89000000000001 67.94999999999999 117.42000000000002 L 67.93999999999998 117.39000000000001 C 67.73999999999998 116.90000000000002 67.43999999999998 116.47000000000001 67.07999999999998 116.10000000000001 C 66.88999999999999 115.91000000000001 66.67999999999998 115.74000000000001 66.44999999999999 115.59 L 66.41999999999999 115.57000000000001 C 66.29 115.49 66.16 115.42 66.03 115.35 L 66.03 115.35 z M 56.35 118.71 L 56.35 98.55 C 55.93 98.98 55.49 99.36 55.03 99.71 C 54.32 100.25 53.58 100.67999999999999 52.81 101.02 L 52.81 116.96 L 41.26 116.96 C 41.199999999999996 116.86 41.14 116.75999999999999 41.07 116.66 C 40.93 116.46 40.78 116.28 40.61 116.11 C 40.25 115.75 39.81 115.45 39.32 115.25 C 38.85 115.06 38.34 114.95 37.8 114.95 C 37.269999999999996 114.95 36.75 115.06 36.279999999999994 115.25 C 35.78999999999999 115.45 35.35999999999999 115.75 34.989999999999995 116.11 C 34.629999999999995 116.47 34.33 116.91 34.129999999999995 117.4 C 33.94 117.87 33.83 118.38000000000001 33.83 118.92 C 33.83 119.45 33.94 119.96000000000001 34.129999999999995 120.44 C 34.33 120.92999999999999 34.629999999999995 121.37 34.989999999999995 121.73 C 35.349999999999994 122.09 35.78999999999999 122.39 36.279999999999994 122.59 C 36.74999999999999 122.78 37.25999999999999 122.89 37.8 122.89 C 38.32 122.89 38.82 122.79 39.29 122.6 L 39.32 122.58999999999999 C 39.81 122.38999999999999 40.24 122.08999999999999 40.61 121.72999999999999 C 40.83 121.50999999999999 41.03 121.24999999999999 41.2 120.97999999999999 C 41.290000000000006 120.82999999999998 41.38 120.66 41.45 120.49999999999999 L 54.57 120.49999999999999 C 55.06 120.49999999999999 55.5 120.29999999999998 55.82 119.97999999999999 C 56.15 119.64 56.35 119.2 56.35 118.71 L 56.35 118.71 z M 47.81 104.84 L 47.81 101.93 C 47.03 101.89 46.25 101.77000000000001 45.49 101.58000000000001 C 45.080000000000005 101.48000000000002 44.67 101.35000000000001 44.27 101.21000000000001 L 44.27 103.08000000000001 L 39.050000000000004 103.08000000000001 C 38.980000000000004 102.94000000000001 38.910000000000004 102.81000000000002 38.82000000000001 102.68 C 38.67000000000001 102.44000000000001 38.49000000000001 102.22000000000001 38.28000000000001 102.01 L 38.28000000000001 102.01 C 37.92000000000001 101.65 37.48000000000001 101.35000000000001 36.99000000000001 101.15 C 36.52000000000001 100.96000000000001 36.01000000000001 100.85000000000001 35.48000000000001 100.85000000000001 C 34.95000000000001 100.85000000000001 34.44000000000001 100.96000000000001 33.96000000000001 101.15 C 33.49000000000001 101.35000000000001 33.06000000000001 101.63000000000001 32.70000000000001 101.98 L 32.67 102 C 32.31 102.36 32.010000000000005 102.8 31.810000000000002 103.29 C 31.62 103.76 31.51 104.27000000000001 31.51 104.81 C 31.51 105.35000000000001 31.62 105.86 31.810000000000002 106.33 C 32.010000000000005 106.8 32.29 107.23 32.650000000000006 107.59 L 32.67000000000001 107.62 C 33.03000000000001 107.98 33.45000000000001 108.27000000000001 33.93000000000001 108.47 L 33.96000000000001 108.48 C 34.43000000000001 108.67 34.940000000000005 108.78 35.48000000000001 108.78 C 36.01000000000001 108.78 36.52000000000001 108.67 37.000000000000014 108.48 C 37.47000000000001 108.28 37.90000000000001 108 38.26000000000001 107.65 L 38.29000000000001 107.62 C 38.48000000000001 107.43 38.65000000000001 107.22 38.81000000000002 106.98 C 38.890000000000015 106.86 38.960000000000015 106.74000000000001 39.02000000000002 106.61 L 46.04000000000002 106.61 C 46.53000000000002 106.61 46.97000000000002 106.41 47.29000000000002 106.09 C 47.61 105.77 47.81 105.33 47.81 104.84 L 47.81 104.84 z" stroke-linecap="round" />
</g>
<g transform="matrix(NaN NaN NaN NaN 0 0)"  >
<g style=""   >
</g>
</g>
<g transform="matrix(NaN NaN NaN NaN 0 0)"  >
<g style=""   >
</g>
</g>
</svg>